<?xml version="1.0" standalone="no"?>
<!DOCTYPE svg PUBLIC "-//W3C//DTD SVG 20010904//EN"
 "http://www.w3.org/TR/2001/REC-SVG-20010904/DTD/svg10.dtd">
<svg version="1.0" xmlns="http://www.w3.org/2000/svg"
 width="300.000000pt" height="300.000000pt" viewBox="0 0 300.000000 300.000000"
 preserveAspectRatio="xMidYMid meet">
<metadata>
Created by potrace 1.14, written by Peter Selinger 2001-2017
</metadata>
<g transform="translate(0.000000,300.000000) scale(0.100000,-0.100000)"
fill="#000000" stroke="none">
<path d="M958 2458 l-488 -283 0 -522 0 -523 50 0 50 0 2 492 3 492 420 244
c231 134 430 248 442 254 18 9 79 -23 462 -243 l441 -254 0 -492 0 -493 55 0
55 0 -2 522 -3 522 -115 66 c-615 356 -853 493 -868 496 -9 2 -232 -120 -504
-278z"/>
<path d="M1486 2048 c-4 -18 -43 -224 -87 -458 -44 -234 -82 -433 -85 -442 -5
-16 2 -18 49 -18 49 0 55 3 60 23 8 30 177 912 177 921 0 3 -24 6 -54 6 -52 0
-54 -1 -60 -32z"/>
<path d="M1005 1807 l-240 -132 -3 -70 c-1 -38 1 -75 5 -81 8 -10 485 -274
497 -274 3 0 6 39 6 88 l0 87 -172 87 -173 86 172 84 173 83 0 88 c0 63 -3 87
-12 86 -7 0 -121 -60 -253 -132z"/>
<path d="M1640 1855 l0 -85 172 -86 173 -87 -173 -86 -172 -86 0 -87 c0 -49 4
-88 9 -88 5 0 92 45 192 101 101 56 212 117 247 136 l63 34 -3 77 -3 77 -240
132 c-132 72 -246 132 -252 132 -10 1 -13 -22 -13 -84z"/>
<path d="M853 1023 c-30 -6 -71 -46 -79 -77 -9 -39 3 -74 41 -112 30 -30 40
-34 87 -34 59 0 109 24 129 61 16 31 15 95 -2 115 -32 39 -110 60 -176 47z
m111 -55 c39 -56 5 -118 -65 -118 -28 0 -38 4 -33 12 5 8 2 9 -9 5 -9 -3 -19
-1 -23 5 -5 7 -2 8 6 3 10 -6 11 -4 5 11 -23 56 8 90 97 103 4 1 14 -9 22 -21z
m56 -101 c0 -2 -10 -12 -22 -23 l-23 -19 19 23 c18 21 26 27 26 19z"/>
<path d="M874 936 c-10 -26 4 -48 28 -44 17 2 23 10 23 28 0 18 -6 26 -23 28
-13 2 -25 -3 -28 -12z"/>
<path d="M580 915 c0 -98 1 -105 20 -105 17 0 20 7 20 45 l0 45 45 0 45 0 0
-45 c0 -38 3 -45 20 -45 19 0 20 7 20 105 0 98 -1 105 -20 105 -17 0 -20 -7
-20 -40 l0 -40 -45 0 -45 0 0 40 c0 33 -3 40 -20 40 -19 0 -20 -7 -20 -105z"/>
<path d="M1080 915 c0 -98 1 -105 20 -105 18 0 20 7 21 68 0 37 3 60 6 52 3
-8 14 -39 25 -67 28 -76 49 -72 81 15 l26 67 0 -67 c1 -61 3 -68 21 -68 19 0
20 7 20 106 l0 105 -27 -3 c-25 -3 -31 -11 -54 -78 -30 -83 -25 -86 -65 28
-16 46 -22 52 -46 52 l-28 0 0 -105z"/>
<path d="M1390 915 l0 -105 60 0 c47 0 60 3 60 15 0 11 -11 15 -40 15 -38 0
-40 2 -40 29 0 27 3 30 38 33 25 2 37 8 37 18 0 10 -12 16 -37 18 -33 3 -38 7
-38 28 0 21 4 24 40 24 29 0 40 4 40 15 0 12 -13 15 -60 15 l-60 0 0 -105z"/>
<path d="M1698 918 c23 -88 30 -103 49 -106 19 -3 24 6 44 70 l22 73 20 -72
c17 -63 23 -73 42 -73 20 0 25 10 43 78 37 137 36 132 14 132 -16 0 -23 -13
-38 -72 l-18 -73 -21 70 c-17 55 -26 71 -42 73 -18 3 -24 -6 -37 -51 -9 -30
-16 -60 -16 -66 0 -6 -4 -11 -8 -11 -5 0 -15 28 -23 63 -12 50 -18 63 -36 65
l-21 3 26 -103z"/>
<path d="M2010 915 l0 -105 65 0 c51 0 65 3 65 15 0 11 -12 15 -45 15 -43 0
-45 1 -45 30 0 28 2 30 40 30 33 0 40 3 40 20 0 17 -7 20 -40 20 -36 0 -40 3
-40 25 0 23 4 25 45 25 33 0 45 4 45 15 0 12 -14 15 -65 15 l-65 0 0 -105z"/>
<path d="M2210 915 l0 -105 60 0 c47 0 64 4 80 20 24 24 25 48 5 77 -10 14
-12 24 -5 28 15 9 12 52 -6 69 -10 11 -34 16 -75 16 l-59 0 0 -105z m99 66
c23 -15 5 -41 -29 -41 -25 0 -30 4 -30 25 0 19 5 25 23 25 12 0 28 -4 36 -9z
m9 -93 c19 -19 -4 -48 -38 -48 -27 0 -30 3 -30 30 0 26 4 30 28 30 15 0 33 -5
40 -12z"/>
<path d="M1090 676 c0 -2 83 -52 183 -110 l184 -106 174 100 c96 56 178 105
183 111 6 5 -27 9 -89 9 l-98 0 -81 -47 c-44 -25 -85 -46 -91 -46 -5 0 -46 21
-90 47 l-80 46 -97 0 c-54 0 -98 -2 -98 -4z"/>
<path d="M802 383 c-15 -29 -25 -113 -13 -113 5 0 13 20 17 45 3 25 10 45 15
45 5 0 6 6 3 14 -3 8 2 16 13 19 15 4 14 5 -4 6 -12 0 -26 -7 -31 -16z"/>
<path d="M1106 383 c-16 -59 -17 -83 -3 -83 9 0 14 11 15 30 0 17 4 39 7 50 3
11 2 20 -4 20 -5 0 -12 -8 -15 -17z"/>
<path d="M1640 385 c0 -9 -6 -15 -12 -14 -27 3 -38 -2 -48 -20 -16 -31 -2 -51
36 -51 27 0 34 4 34 19 0 10 3 33 6 50 4 20 3 31 -5 31 -6 0 -11 -7 -11 -15z
m-10 -44 c0 -21 -26 -36 -36 -20 -6 11 13 39 27 39 5 0 9 -9 9 -19z"/>
<path d="M1957 393 c-3 -5 -8 -27 -12 -50 -6 -36 -4 -43 10 -43 9 0 14 4 10 9
-3 6 -1 28 4 50 8 36 1 55 -12 34z"/>
<path d="M932 364 c-32 -22 -26 -58 11 -62 15 -2 27 2 27 8 0 7 -8 9 -20 5
-11 -3 -20 -2 -20 4 0 5 10 11 23 13 14 2 22 10 22 22 0 26 -16 29 -43 10z
m28 -14 c0 -5 -4 -10 -10 -10 -5 0 -10 5 -10 10 0 6 5 10 10 10 6 0 10 -4 10
-10z"/>
<path d="M1022 364 c-30 -21 -26 -58 7 -62 13 -2 28 2 35 9 8 9 7 10 -7 5 -11
-3 -24 -3 -30 1 -7 4 -2 9 13 13 16 4 25 13 25 25 0 25 -16 28 -43 9z m33 -14
c-3 -5 -10 -10 -16 -10 -5 0 -9 5 -9 10 0 6 7 10 16 10 8 0 12 -4 9 -10z"/>
<path d="M1168 369 c-11 -6 -18 -22 -18 -39 0 -27 3 -30 34 -30 30 0 34 3 39
33 2 17 4 33 3 33 -9 9 -45 11 -58 3z m30 -31 c-4 -27 -28 -36 -28 -10 0 20 8
32 22 32 5 0 8 -10 6 -22z"/>
<path d="M1280 373 c-21 -8 -30 -24 -30 -52 0 -28 16 -18 22 13 1 11 9 21 17
24 11 4 13 -2 8 -27 -8 -37 10 -43 19 -6 11 43 -2 61 -36 48z"/>
<path d="M1362 364 c-30 -21 -26 -58 7 -62 13 -2 28 2 35 8 8 9 5 11 -14 8
-19 -2 -25 1 -25 17 0 14 6 20 23 19 12 0 21 4 19 10 -6 17 -21 17 -45 0z"/>
<path d="M1452 364 c-30 -21 -26 -58 7 -62 13 -2 28 2 35 8 8 9 6 11 -11 6
-12 -4 -24 -2 -28 4 -3 5 2 10 12 10 28 0 45 20 32 37 -15 17 -20 16 -47 -3z
m33 -14 c-3 -5 -10 -10 -16 -10 -5 0 -9 5 -9 10 0 6 7 10 16 10 8 0 12 -4 9
-10z"/>
<path d="M1702 373 c-18 -7 -33 -39 -26 -57 7 -18 49 -22 60 -5 4 7 0 9 -14 5
-11 -4 -23 -2 -27 4 -4 6 4 10 19 10 30 0 42 16 26 35 -13 16 -17 17 -38 8z
m23 -23 c-3 -5 -10 -10 -16 -10 -5 0 -9 5 -9 10 0 6 7 10 16 10 8 0 12 -4 9
-10z"/>
<path d="M1866 364 c-26 -25 -17 -58 17 -62 15 -2 27 2 27 8 0 7 -8 9 -20 5
-11 -3 -20 -2 -20 4 0 5 10 11 23 13 14 2 22 10 22 23 0 25 -28 31 -49 9z m29
-14 c-3 -5 -11 -10 -16 -10 -6 0 -7 5 -4 10 3 6 11 10 16 10 6 0 7 -4 4 -10z"/>
<path d="M2011 361 c-12 -12 -21 -24 -21 -28 1 -20 19 -34 40 -31 31 4 48 33
34 55 -16 25 -31 26 -53 4z m39 -20 c0 -24 -18 -37 -32 -23 -8 8 -7 16 2 27
17 21 30 19 30 -4z"/>
<path d="M2118 373 c-10 -3 -20 -21 -27 -51 -11 -52 -7 -64 12 -40 6 9 21 18
31 20 27 5 44 34 30 55 -12 19 -22 22 -46 16z m32 -32 c0 -21 -26 -36 -36 -20
-6 11 13 39 27 39 5 0 9 -9 9 -19z"/>
<path d="M2206 361 c-25 -27 -17 -55 17 -59 15 -2 27 2 27 8 0 7 -8 9 -20 5
-11 -3 -20 -2 -20 4 0 5 10 11 23 13 14 2 22 10 22 23 0 27 -27 30 -49 6z m34
-5 c0 -3 -4 -8 -10 -11 -5 -3 -10 -1 -10 4 0 6 5 11 10 11 6 0 10 -2 10 -4z"/>
<path d="M856 358 c-13 -41 -14 -59 -3 -55 7 2 14 12 15 23 2 10 11 25 20 32
14 11 13 12 -6 12 -13 0 -24 -6 -26 -12z"/>
<path d="M1770 348 c0 -30 15 -52 29 -44 16 10 43 66 32 66 -4 0 -16 -10 -24
-22 l-16 -23 0 23 c-1 12 -5 22 -11 22 -5 0 -10 -10 -10 -22z"/>
<path d="M2286 348 c-8 -33 -7 -48 4 -48 6 0 10 8 10 17 0 9 7 25 17 35 15 17
15 18 -4 18 -13 0 -23 -8 -27 -22z"/>
</g>
</svg>
